<svg width="122" height="61" viewBox="0 0 122 61" fill="none" xmlns="http://www.w3.org/2000/svg">
<g clip-path="url(#clip0_1_357)">
<path d="M33.3061 39.2487L29.9912 29.7505C29.6982 28.9108 29.8316 27.9609 30.3621 27.1096C30.8927 26.2584 31.7769 25.5756 32.8202 25.2115L64.292 14.2279C65.3354 13.8638 66.4524 13.8481 67.3974 14.1844C68.3423 14.5207 69.0379 15.1813 69.3309 16.021L72.6458 25.5192L88.3817 20.0274C89.425 19.6633 90.5421 19.6476 91.487 19.9839C92.432 20.3202 93.1275 20.9808 93.4206 21.8205L108.89 66.1455C109.183 66.9852 109.05 67.9352 108.519 68.7864C107.989 69.6376 107.104 70.3204 106.061 70.6845L35.2495 95.3977C34.2062 95.7618 33.0891 95.7775 32.1442 95.4412C31.1992 95.1049 30.5036 94.4442 30.2106 93.6046L14.7412 49.2796C14.4482 48.4399 14.5816 47.4899 15.1121 46.6387C15.6427 45.7875 16.5269 45.1047 17.5702 44.7405L33.3061 39.2487ZM74.8557 31.8514L80.3805 47.6817L92.1824 43.5628L86.6576 27.7325L74.8557 31.8514ZM66.9878 34.5973L43.384 42.835L48.9087 58.6653L72.5125 50.4276L66.9878 34.5973ZM35.516 45.5809L23.7141 49.6997L29.2389 65.5301L41.0408 61.4112L35.516 45.5809ZM38.9641 30.1707L41.174 36.5028L64.7779 28.2651L62.5679 21.933L38.9641 30.1707Z" fill="#6874B5"/>
</g>
<defs>
<clipPath id="clip0_1_357">
<rect width="100" height="80.4803" fill="white" transform="translate(0.24353 33.0291) rotate(-19.2389)"/>
</clipPath>
</defs>
</svg>
