<svg width="38" height="37" viewBox="0 0 38 37" fill="none" xmlns="http://www.w3.org/2000/svg">
<rect x="0.333374" width="37" height="37" rx="7" fill="#242C55"/>
<g clip-path="url(#clip0_1_363)">
<path d="M13.8334 11.5V8.5C13.8334 8.23478 13.9387 7.98043 14.1263 7.79289C14.3138 7.60536 14.5682 7.5 14.8334 7.5H22.8334C23.0986 7.5 23.3529 7.60536 23.5405 7.79289C23.728 7.98043 23.8334 8.23478 23.8334 8.5V11.5H27.8334C28.0986 11.5 28.3529 11.6054 28.5405 11.7929C28.728 11.9804 28.8334 12.2348 28.8334 12.5V26.5C28.8334 26.7652 28.728 27.0196 28.5405 27.2071C28.3529 27.3946 28.0986 27.5 27.8334 27.5H9.83337C9.56816 27.5 9.3138 27.3946 9.12627 27.2071C8.93873 27.0196 8.83337 26.7652 8.83337 26.5V12.5C8.83337 12.2348 8.93873 11.9804 9.12627 11.7929C9.3138 11.6054 9.56816 11.5 9.83337 11.5H13.8334ZM12.8334 19.5V13.5H10.8334V19.5H12.8334ZM14.8334 13.5V19.5H17.8334V17.5H19.8334V19.5H22.8334V13.5H14.8334ZM24.8334 19.5H26.8334V13.5H24.8334V19.5ZM15.8334 9.5V11.5H21.8334V9.5H15.8334Z" fill="#F4FBFF"/>
</g>
<defs>
<clipPath id="clip0_1_363">
<rect width="24" height="24" fill="white" transform="translate(6.83337 6.5)"/>
</clipPath>
</defs>
</svg>
