<svg width="119" height="58" viewBox="0 0 119 58" fill="none" xmlns="http://www.w3.org/2000/svg">
<g clip-path="url(#clip0_1_379)">
<path d="M53.0413 25.9477L41.6022 41.6949C39.698 44.3081 40.1765 47.9651 42.6931 49.9922C45.3599 52.157 49.2897 51.6702 51.3547 48.9331L63.2197 33.2658C64.0578 32.1678 65.6156 31.9445 66.7287 32.7785C67.8419 33.6126 68.0501 35.1744 67.2161 36.2876L64.7168 39.5778L90.8719 53.2751L83.2368 24.7803L83.1311 24.8086L82.4414 24.589L69.6037 20.5069C66.8982 19.6466 63.9864 19.5856 61.2395 20.3217C57.9493 21.2033 55.053 23.1925 53.0413 25.9477ZM61.5132 43.8009L55.336 51.9589C51.5767 56.9455 44.4206 57.8277 39.5484 53.8921C34.9645 50.1866 34.0869 43.5307 37.5506 38.7689L47.386 25.2469C45.4371 24.9765 43.4494 25.1047 41.5326 25.6183C38.6912 26.3635 36.1557 27.9487 34.2067 30.1533L25.2812 40.3094L34.3399 74.1168L38.596 72.9764L55.7634 81.8674C59.4454 83.7763 63.9618 82.3397 65.8708 78.6576C66.4542 77.5146 66.7255 76.2934 66.713 75.0997L69.9096 76.7666C73.5765 78.6796 78.1121 77.254 80.0251 73.5871C80.5061 72.6656 80.7736 71.6718 80.852 70.6964C84.3057 71.8739 88.1809 70.3988 89.9212 67.0531C91.8342 63.3862 90.4086 58.8506 86.7416 56.9376L61.5132 43.8009ZM8.37752 44.8387C7.04937 45.1946 6.25387 46.5725 6.60975 47.9006L15.0214 79.2932C15.7372 81.9646 18.4737 83.5445 21.1451 82.8287L25.9747 81.5346C28.6461 80.8188 30.2261 78.0823 29.5103 75.4109L20.4516 41.6035L8.37752 44.8387ZM20.9717 72.5224C21.6122 72.3508 22.2946 72.4407 22.8688 72.7722C23.443 73.1037 23.862 73.6497 24.0336 74.2902C24.2052 74.9306 24.1154 75.613 23.7838 76.1872C23.4523 76.7615 22.9063 77.1804 22.2658 77.3521C21.6254 77.5237 20.943 77.4338 20.3688 77.1023C19.7946 76.7708 19.3756 76.2247 19.204 75.5843C19.0323 74.9438 19.1222 74.2615 19.4537 73.6872C19.7852 73.113 20.3313 72.694 20.9717 72.5224ZM88.0664 23.4862L97.1251 57.2936C97.8409 59.965 100.577 61.5449 103.249 60.8291L108.078 59.535C110.75 58.8192 112.33 56.0827 111.614 53.4113L103.202 22.0187C102.846 20.6906 101.469 19.8951 100.14 20.2509L88.0664 23.4862ZM101.308 53.5847C101.136 52.9442 101.226 52.2618 101.557 51.6876C101.889 51.1134 102.435 50.6944 103.075 50.5228C103.716 50.3512 104.398 50.441 104.972 50.7726C105.547 51.1041 105.966 51.6501 106.137 52.2906C106.309 52.931 106.219 53.6134 105.888 54.1876C105.556 54.7618 105.01 55.1808 104.37 55.3524C103.729 55.5241 103.047 55.4342 102.472 55.1027C101.898 54.7712 101.479 54.2251 101.308 53.5847Z" fill="#2F5C61"/>
</g>
<defs>
<clipPath id="clip0_1_379">
<rect width="100" height="80" fill="white" transform="translate(0.786377 26.1673) rotate(-15)"/>
</clipPath>
</defs>
</svg>
