<svg width="37" height="37" viewBox="0 0 37 37" fill="none" xmlns="http://www.w3.org/2000/svg">
<rect width="37" height="37" rx="7" fill="#0C2628"/>
<g clip-path="url(#clip0_1_386)">
<path d="M18.6115 12.8957L15.4353 15.4681C14.907 15.8947 14.8053 16.6625 15.2056 17.2105C15.6289 17.7945 16.4525 17.9094 17.0201 17.4664L20.2784 14.9333C20.5081 14.7561 20.8362 14.7955 21.0166 15.0252C21.1971 15.2549 21.1545 15.583 20.9248 15.7635L20.239 16.295L24.7999 20.495V14.3H24.7769L24.649 14.218L22.2668 12.6922C21.7648 12.3707 21.1774 12.2 20.5802 12.2C19.8649 12.2 19.1693 12.4461 18.6115 12.8957ZM19.3596 16.9775L17.6632 18.2966C16.6296 19.1038 15.1301 18.8938 14.3557 17.8306C13.6273 16.8299 13.8111 15.4321 14.7725 14.6544L17.5024 12.4461C17.1218 12.2854 16.7117 12.2033 16.295 12.2033C15.6781 12.2 15.0776 12.3838 14.5625 12.725L12.2 14.3V21.65H13.1253L16.1243 24.3865C16.7674 24.9739 17.7617 24.9279 18.349 24.2848C18.5295 24.0847 18.6509 23.8517 18.7132 23.6089L19.271 24.1208C19.9109 24.7081 20.9084 24.6654 21.4957 24.0256C21.6434 23.8648 21.7516 23.6778 21.8205 23.4842C22.4571 23.9108 23.3233 23.8222 23.8582 23.2381C24.4455 22.5983 24.4029 21.6008 23.763 21.0134L19.3596 16.9775ZM8.525 14.3C8.23625 14.3 8 14.5363 8 14.825V21.65C8 22.2308 8.46922 22.7 9.04999 22.7H10.1C10.6808 22.7 11.15 22.2308 11.15 21.65V14.3H8.525ZM9.57499 20.6C9.71423 20.6 9.84776 20.6553 9.94622 20.7538C10.0447 20.8522 10.1 20.9858 10.1 21.125C10.1 21.2642 10.0447 21.3978 9.94622 21.4962C9.84776 21.5947 9.71423 21.65 9.57499 21.65C9.43575 21.65 9.30222 21.5947 9.20376 21.4962C9.10531 21.3978 9.04999 21.2642 9.04999 21.125C9.04999 20.9858 9.10531 20.8522 9.20376 20.7538C9.30222 20.6553 9.43575 20.6 9.57499 20.6ZM25.8499 14.3V21.65C25.8499 22.2308 26.3191 22.7 26.8999 22.7H27.9499C28.5307 22.7 28.9999 22.2308 28.9999 21.65V14.825C28.9999 14.5363 28.7636 14.3 28.4749 14.3H25.8499ZM26.8999 21.125C26.8999 20.9858 26.9552 20.8522 27.0537 20.7538C27.1521 20.6553 27.2856 20.6 27.4249 20.6C27.5641 20.6 27.6977 20.6553 27.7961 20.7538C27.8946 20.8522 27.9499 20.9858 27.9499 21.125C27.9499 21.2642 27.8946 21.3978 27.7961 21.4962C27.6977 21.5947 27.5641 21.65 27.4249 21.65C27.2856 21.65 27.1521 21.5947 27.0537 21.4962C26.9552 21.3978 26.8999 21.2642 26.8999 21.125Z" fill="#EEF4F5"/>
</g>
<defs>
<clipPath id="clip0_1_386">
<rect width="20.9999" height="16.7999" fill="white" transform="translate(8 10.1001)"/>
</clipPath>
</defs>
</svg>
