<svg width="141" height="48" viewBox="0 0 141 48" fill="none" xmlns="http://www.w3.org/2000/svg">
<path d="M59.7629 15.3984L52.7596 3.26641H20.0773L4.20315 32.1965L10.7396 44.3287H42.9548L59.7629 15.3984Z" fill="white"/>
<path d="M4.52329 32.2176L4.64773 31.9818L20.5535 3.94696H52.5309L59.1394 15.4874L43.068 43.6485H10.977L4.52329 32.2176ZM21.1241 4.90256L5.62309 32.2176L11.5369 42.6962H42.5388L58.0092 15.4874L51.97 4.89926L21.1241 4.90256Z" fill="white"/>
<path d="M36.6052 31.746H5.07407V32.7116H36.6052V31.746Z" fill="black"/>
<path d="M51.3579 4.18171L35.5977 32.2567L36.4388 32.7298L52.1991 4.65485L51.3579 4.18171Z" fill="black"/>
<path d="M36.4715 31.6988L35.6304 32.1719L41.9347 43.4022L42.7758 42.9291L36.4715 31.6988Z" fill="black"/>
<path d="M58.5613 15.4808L42.789 43.1686H11.2579L5.03229 32.2094L20.8343 4.39618H52.2511L58.5613 15.4808ZM61.1548 15.4808L60.5308 14.3815L54.2224 3.30856L53.5795 2.16033H19.5164L18.8628 3.30856L3.113 31.1292L2.50089 32.216L3.113 33.3111L9.33861 44.2837L9.98223 45.4221H44.2207L44.864 44.2837L60.6348 16.5991L61.2574 15.5015L61.1548 15.4808Z" fill="white"/>
<path d="M72.7304 2.28483H78.1158L76.1541 14.9452L82.1796 2.28483H87.5645L76.9833 21.6644H71.049L72.7304 2.28483Z" fill="white"/>
<path d="M79.8734 21.6644L90.2488 2.28483H96.6277L94.856 21.6644H89.3988L89.8756 18.8084H86.6797L85.3728 21.6644H79.8734ZM88.4748 14.8929H90.6427L91.8038 7.71628L88.4748 14.8929Z" fill="white"/>
<path d="M95.027 21.6644L101.179 2.28483H106.606L101.988 16.8249H105.952L104.441 21.6295L95.027 21.6644Z" fill="white"/>
<path d="M106.689 14.7359L110.611 2.27386H116.047L111.9 15.2456C111.883 15.3453 111.856 15.4428 111.817 15.5362C111.814 15.6396 111.794 15.7416 111.755 15.8376C111.721 15.9714 111.719 16.1113 111.747 16.2462C111.776 16.3813 111.835 16.5079 111.921 16.6164C112.012 16.7169 112.125 16.7952 112.251 16.8456C112.377 16.896 112.512 16.9169 112.648 16.9069C113.034 16.906 113.405 16.7575 113.685 16.4918C114.016 16.1404 114.254 15.7126 114.38 15.2464L118.527 2.2747H123.932L119.99 14.7359L119.917 14.9335C119.459 16.7417 118.601 18.4239 117.407 19.856C116.668 20.603 115.771 21.1745 114.781 21.5281C113.669 21.9201 112.496 22.1102 111.316 22.0893C109.243 22.0893 107.851 21.6634 107.003 20.8116C106.556 20.2764 106.245 19.6406 106.096 18.9587C105.948 18.2768 105.967 17.569 106.152 16.8961C106.179 16.5821 106.242 16.272 106.339 15.9721C106.419 15.6408 106.541 15.2149 106.689 14.7359Z" fill="white"/>
<path d="M119.752 21.6644L125.977 2.28483H135.565L134.081 6.97902H129.934L129.093 9.45067H132.87L131.447 13.9913H127.67L126.768 16.619H130.915L129.327 21.6254L119.752 21.6644Z" fill="white"/>
<path d="M134.121 21.4499H132.731L133.904 17.7736H133.085L133.479 16.5165H136.498L136.104 17.7736H135.315L134.121 21.4499Z" fill="white"/>
<path d="M137.473 17.7944L136.196 21.4475H135.014L136.933 16.5142H138.541L138.147 19.1212L139.391 16.5142H141L139.796 21.4475H138.603L139.64 17.7944L137.898 21.4475H136.964L137.473 17.7944Z" fill="white"/>
<path d="M54.3242 45.4441L64.6507 26.0644H71.0288L69.3482 45.4441H63.8907L64.3679 42.588H61.172L59.8647 45.4441H54.3242ZM62.9253 38.6725H65.0936L66.2969 31.4959L62.9253 38.6725Z" fill="white"/>
<path d="M76.3136 45.4441H70.8767L75.4385 30.9762H72.2255L73.78 26.0644H85.6513L84.0955 30.977H80.8895L76.3136 45.4441Z" fill="white"/>
<path d="M92.5052 26.0644H97.8897L95.9082 38.7249L101.936 26.0644H107.321L96.7485 45.4441H90.8031L92.5052 26.0644Z" fill="white"/>
<path d="M107.894 45.8299C107.09 45.888 106.285 45.7361 105.558 45.3882C104.831 45.0403 104.207 44.5088 103.747 43.8462C102.792 42.2563 102.491 40.3572 102.907 38.5492C103.201 36.7623 103.714 35.0182 104.433 33.356C105.075 31.8112 105.942 30.3694 107.004 29.0769C107.859 28.0379 108.919 27.1859 110.116 26.5738C111.245 26.0256 112.484 25.7449 113.738 25.7535C114.539 25.6947 115.342 25.8446 116.069 26.1885C116.796 26.5325 117.421 27.0587 117.885 27.7162C118.822 29.3242 119.108 31.2311 118.683 33.0439C118.399 34.832 117.891 36.577 117.169 38.2371C116.522 39.7828 115.656 41.2273 114.598 42.5261C113.742 43.5611 112.682 44.4088 111.485 45.0169C110.366 45.5577 109.138 45.836 107.894 45.8299ZM108.33 38.9851C108.19 39.5017 108.19 40.046 108.33 40.5626C108.4 40.7258 108.52 40.8623 108.673 40.9519C108.826 41.0416 109.004 41.0797 109.181 41.0607C109.571 41.0481 109.941 40.8886 110.218 40.614C110.627 40.1947 110.957 39.7058 111.194 39.1702C111.676 38.1651 112.079 37.1232 112.397 36.0543C112.751 34.915 113.025 33.7523 113.217 32.5748C113.342 32.0492 113.342 31.5013 113.217 30.9757C113.159 30.8165 113.05 30.6807 112.908 30.5888C112.765 30.4969 112.597 30.4541 112.428 30.4668C112.011 30.4656 111.609 30.6256 111.307 30.9134C110.898 31.3221 110.571 31.8051 110.343 32.3365C109.858 33.3683 109.449 34.4338 109.119 35.5247C108.772 36.6574 108.509 37.814 108.331 38.9851H108.33Z" fill="white"/>
<path d="M116.07 45.4441L122.202 26.0644H127.618L121.475 45.4441H116.07Z" fill="white"/>
<path d="M123.685 45.4441L129.831 26.0644H133.978C136.565 26.0644 138.374 26.6669 139.404 27.8719C140.442 29.0765 140.752 30.9355 140.358 33.4594C140.042 35.4191 139.433 37.3203 138.553 39.0993C137.831 40.6637 136.812 42.0734 135.555 43.2505C134.7 44.0082 133.696 44.5779 132.608 44.9227C131.038 45.3142 129.42 45.482 127.804 45.4208L123.685 45.4441ZM130.647 40.6668H130.937C131.265 40.6603 131.587 40.5824 131.881 40.4385C132.19 40.2829 132.468 40.0715 132.7 39.8149C133.28 39.027 133.728 38.1503 134.028 37.2188C134.51 35.9609 134.858 34.6554 135.065 33.3241C135.221 32.7084 135.185 32.0597 134.962 31.4652C134.837 31.2585 134.661 31.0888 134.449 30.9738C134.237 30.8587 133.999 30.8025 133.758 30.8109L130.647 40.6668Z" fill="white"/>
</svg>
