<svg width="38" height="37" viewBox="0 0 38 37" fill="none" xmlns="http://www.w3.org/2000/svg">
<rect x="0.666687" width="37" height="37" rx="7" fill="#581D2B"/>
<path d="M26.0417 28H14.7917C14.6259 28 14.467 27.9333 14.3497 27.8145C14.2325 27.6957 14.1667 27.5346 14.1667 27.3667C14.1667 27.1987 14.2325 27.0376 14.3497 26.9188C14.467 26.8001 14.6259 26.7333 14.7917 26.7333H25.4167V12.1667C25.4167 11.9987 25.4825 11.8376 25.5997 11.7188C25.717 11.6001 25.8759 11.5333 26.0417 11.5333C26.2074 11.5333 26.3664 11.6001 26.4836 11.7188C26.6008 11.8376 26.6667 11.9987 26.6667 12.1667V27.3667C26.6667 27.5346 26.6008 27.6957 26.4836 27.8145C26.3664 27.9333 26.2074 28 26.0417 28Z" fill="#EEF4F5"/>
<path d="M14.1667 10.0045L12.658 11.5333H14.1667V10.0045Z" fill="#EEF4F5"/>
<path d="M23.5417 9H15.4167V12.1667C15.4167 12.3346 15.3508 12.4957 15.2336 12.6145C15.1164 12.7333 14.9574 12.8 14.7917 12.8H11.6667V24.8333C11.6667 25.0013 11.7325 25.1624 11.8497 25.2812C11.967 25.3999 12.1259 25.4667 12.2917 25.4667H23.5417C23.7074 25.4667 23.8664 25.3999 23.9836 25.2812C24.1008 25.1624 24.1667 25.0013 24.1667 24.8333V9.63333C24.1667 9.46536 24.1008 9.30427 23.9836 9.1855C23.8664 9.06673 23.7074 9 23.5417 9ZM21.6667 22.9333H14.1667C14.0009 22.9333 13.842 22.8666 13.7247 22.7478C13.6075 22.6291 13.5417 22.468 13.5417 22.3C13.5417 22.132 13.6075 21.9709 13.7247 21.8522C13.842 21.7334 14.0009 21.6667 14.1667 21.6667H21.6667C21.8324 21.6667 21.9914 21.7334 22.1086 21.8522C22.2258 21.9709 22.2917 22.132 22.2917 22.3C22.2917 22.468 22.2258 22.6291 22.1086 22.7478C21.9914 22.8666 21.8324 22.9333 21.6667 22.9333ZM21.6667 20.4H14.1667C14.0009 20.4 13.842 20.3333 13.7247 20.2145C13.6075 20.0957 13.5417 19.9346 13.5417 19.7667C13.5417 19.5987 13.6075 19.4376 13.7247 19.3188C13.842 19.2001 14.0009 19.1333 14.1667 19.1333H21.6667C21.8324 19.1333 21.9914 19.2001 22.1086 19.3188C22.2258 19.4376 22.2917 19.5987 22.2917 19.7667C22.2917 19.9346 22.2258 20.0957 22.1086 20.2145C21.9914 20.3333 21.8324 20.4 21.6667 20.4ZM21.6667 17.8667H14.1667C14.0009 17.8667 13.842 17.7999 13.7247 17.6812C13.6075 17.5624 13.5417 17.4013 13.5417 17.2333C13.5417 17.0654 13.6075 16.9043 13.7247 16.7855C13.842 16.6667 14.0009 16.6 14.1667 16.6H21.6667C21.8324 16.6 21.9914 16.6667 22.1086 16.7855C22.2258 16.9043 22.2917 17.0654 22.2917 17.2333C22.2917 17.4013 22.2258 17.5624 22.1086 17.6812C21.9914 17.7999 21.8324 17.8667 21.6667 17.8667ZM21.6667 15.3333H14.1667C14.0009 15.3333 13.842 15.2666 13.7247 15.1478C13.6075 15.0291 13.5417 14.868 13.5417 14.7C13.5417 14.532 13.6075 14.3709 13.7247 14.2522C13.842 14.1334 14.0009 14.0667 14.1667 14.0667H21.6667C21.8324 14.0667 21.9914 14.1334 22.1086 14.2522C22.2258 14.3709 22.2917 14.532 22.2917 14.7C22.2917 14.868 22.2258 15.0291 22.1086 15.1478C21.9914 15.2666 21.8324 15.3333 21.6667 15.3333ZM21.6667 12.8H17.2917C17.1259 12.8 16.967 12.7333 16.8497 12.6145C16.7325 12.4957 16.6667 12.3346 16.6667 12.1667C16.6667 11.9987 16.7325 11.8376 16.8497 11.7188C16.967 11.6001 17.1259 11.5333 17.2917 11.5333H21.6667C21.8324 11.5333 21.9914 11.6001 22.1086 11.7188C22.2258 11.8376 22.2917 11.9987 22.2917 12.1667C22.2917 12.3346 22.2258 12.4957 22.1086 12.6145C21.9914 12.7333 21.8324 12.8 21.6667 12.8Z" fill="#EEF4F5"/>
</svg>
