<svg width="116" height="63" viewBox="0 0 116 63" fill="none" xmlns="http://www.w3.org/2000/svg">
<path d="M82.8974 71.9436L44.1578 93.134C43.587 93.4462 42.9246 93.5355 42.3164 93.3823C41.7082 93.229 41.2039 92.8457 40.9146 92.3167C40.6252 91.7877 40.5745 91.1564 40.7735 90.5616C40.9725 89.9667 41.405 89.4572 41.9758 89.1449L78.5632 69.1318L53.4701 23.2574C53.1808 22.7284 53.13 22.0971 53.329 21.5023C53.5281 20.9074 53.9605 20.3979 54.5313 20.0856C55.1021 19.7734 55.7645 19.6841 56.3727 19.8374C56.9809 19.9907 57.4852 20.374 57.7745 20.9029L83.9586 68.7719C84.2479 69.3008 84.2987 69.9322 84.0997 70.527C83.9007 71.1218 83.4682 71.6314 82.8974 71.9436Z" fill="#B46074"/>
<path d="M11.0059 37.6384L8.44417 45.2951L13.6396 42.4532L11.0059 37.6384Z" fill="#B46074"/>
<path d="M41.5586 16.8164L13.58 32.1206L19.035 42.0933C19.3243 42.6223 19.3751 43.2536 19.1761 43.8484C18.977 44.4433 18.5446 44.9528 17.9738 45.2651L7.21276 51.1513L27.9418 89.0475C28.2312 89.5765 28.7354 89.9598 29.3436 90.1131C29.9518 90.2663 30.6142 90.177 31.185 89.8648L69.9246 68.6744C70.4954 68.3622 70.9279 67.8526 71.1269 67.2578C71.3259 66.663 71.2752 66.0316 70.9858 65.5027L44.8018 17.6337C44.5124 17.1048 44.0082 16.7215 43.3999 16.5682C42.7917 16.4149 42.1294 16.5042 41.5586 16.8164ZM59.104 64.228L33.2776 78.3549C32.7068 78.6672 32.0444 78.7565 31.4362 78.6032C30.828 78.4499 30.3237 78.0666 30.0344 77.5376C29.745 77.0086 29.6943 76.3773 29.8933 75.7825C30.0923 75.1876 30.5248 74.6781 31.0956 74.3659L56.922 60.2389C57.4928 59.9267 58.1552 59.8374 58.7634 59.9907C59.3716 60.144 59.8759 60.5273 60.1652 61.0562C60.4546 61.5852 60.5053 62.2166 60.3063 62.8114C60.1073 63.4062 59.6748 63.9158 59.104 64.228ZM54.74 56.2499L28.9136 70.3768C28.3428 70.689 27.6804 70.7783 27.0722 70.625C26.464 70.4718 25.9597 70.0885 25.6704 69.5595C25.381 69.0305 25.3303 68.3991 25.5293 67.8043C25.7283 67.2095 26.1608 66.6999 26.7316 66.3877L52.558 52.2608C53.1288 51.9486 53.7912 51.8593 54.3994 52.0125C55.0076 52.1658 55.5118 52.5491 55.8012 53.0781C56.0905 53.6071 56.1413 54.2384 55.9423 54.8332C55.7433 55.4281 55.3108 55.9376 54.74 56.2499ZM50.376 48.2717L24.5496 62.3986C23.9788 62.7108 23.3164 62.8001 22.7082 62.6469C22.1 62.4936 21.5957 62.1103 21.3064 61.5813C21.017 61.0523 20.9663 60.421 21.1653 59.8262C21.3643 59.2313 21.7968 58.7218 22.3676 58.4095L48.194 44.2826C48.7648 43.9704 49.4271 43.8811 50.0354 44.0344C50.6436 44.1877 51.1478 44.5709 51.4372 45.0999C51.7265 45.6289 51.7773 46.2603 51.5783 46.8551C51.3793 47.4499 50.9468 47.9595 50.376 48.2717ZM46.012 40.2936L20.1856 54.4205C19.6148 54.7327 18.9524 54.822 18.3442 54.6687C17.736 54.5154 17.2317 54.1322 16.9424 53.6032C16.653 53.0742 16.6023 52.4428 16.8013 51.848C17.0003 51.2532 17.4328 50.7436 18.0036 50.4314L43.83 36.3045C44.4008 35.9923 45.0631 35.903 45.6714 36.0562C46.2796 36.2095 46.7838 36.5928 47.0732 37.1218C47.3625 37.6508 47.4133 38.2821 47.2143 38.8769C47.0153 39.4718 46.5828 39.9813 46.012 40.2936ZM41.648 32.3154L26.5826 40.5561C26.0118 40.8683 25.3494 40.9576 24.7412 40.8043C24.133 40.6511 23.6287 40.2678 23.3394 39.7388C23.05 39.2098 22.9993 38.5785 23.1983 37.9836C23.3973 37.3888 23.8298 36.8792 24.4006 36.567L39.466 28.3263C40.0368 28.0141 40.6991 27.9248 41.3073 28.0781C41.9156 28.2313 42.4198 28.6146 42.7092 29.1436C42.9985 29.6726 43.0493 30.304 42.8503 30.8988C42.6512 31.4936 42.2188 32.0032 41.648 32.3154Z" fill="#B46074"/>
</svg>
